<?xml version="1.0" standalone="no"?>
<!DOCTYPE svg PUBLIC "-//W3C//DTD SVG 20010904//EN"
 "http://www.w3.org/TR/2001/REC-SVG-20010904/DTD/svg10.dtd">
<svg version="1.0" xmlns="http://www.w3.org/2000/svg"
 width="486.000000pt" height="486.000000pt" viewBox="0 0 486.000000 486.000000"
 preserveAspectRatio="xMidYMid meet">

<g transform="translate(0.000000,486.000000) scale(0.100000,-0.100000)"
fill="#000000" stroke="none">
<path d="M1485 3330 c-84 -55 -85 -190 -1 -241 30 -18 68 -19 944 -19 1008 0
952 -4 992 63 26 42 26 112 0 154 -40 67 16 63 -992 63 -892 0 -914 -1 -943
-20z"/>
<path d="M1500 2562 c-102 -51 -106 -192 -8 -252 32 -19 53 -20 936 -20 810 0
908 2 938 16 101 48 98 204 -6 256 -33 17 -98 18 -930 18 -832 0 -897 -1 -930
-18z"/>
<path d="M1492 1780 c-90 -55 -96 -180 -11 -241 l34 -24 915 0 c866 0 917 1
943 18 89 58 89 189 1 248 -28 18 -64 19 -939 19 -890 0 -911 -1 -943 -20z"/>
</g>
</svg>
